<svg width="21" height="22" viewBox="0 0 21 22" fill="none" xmlns="http://www.w3.org/2000/svg">
    <path d="M10.5 2.25C12.3738 2.25 13.8929 3.64911 13.8929 5.375V6H7.10714V5.375C7.10714 3.64911 8.62618 2.25 10.5 2.25ZM15.25 6V5.375C15.25 2.95875 13.1234 1 10.5 1C7.87665 1 5.75 2.95875 5.75 5.375V6H1V18.5C1 19.8807 2.21523 21 3.71429 21H17.2857C18.7848 21 20 19.8807 20 18.5V6H15.25ZM2.35714 7.25H18.6429V18.5C18.6429 19.1904 18.0352 19.75 17.2857 19.75H3.71429C2.96476 19.75 2.35714 19.1904 2.35714 18.5V7.25Z" fill="#4AC7D5" stroke="#4AC7D5" stroke-width="0.7"/>
</svg>