<svg width="40" height="42" viewBox="0 0 40 42" fill="none" xmlns="http://www.w3.org/2000/svg">
<path d="M7.5 11.0938C7.5 10.3516 8.05964 9.75002 8.75 9.75002H23.75C24.4404 9.75002 25 10.3516 25 11.0938C25 11.8359 24.4404 12.4375 23.75 12.4375H8.75C8.05964 12.4375 7.5 11.8359 7.5 11.0938Z" fill="#837C7C"/>
<path d="M7.5 16.4688C7.5 15.7266 8.05964 15.125 8.75 15.125H23.75C24.4404 15.125 25 15.7266 25 16.4688C25 17.2109 24.4404 17.8125 23.75 17.8125H8.75C8.05964 17.8125 7.5 17.2109 7.5 16.4688Z" fill="#837C7C"/>
<path d="M7.5 21.8438C7.5 21.1016 8.05964 20.5 8.75 20.5H23.75C24.4404 20.5 25 21.1016 25 21.8438C25 22.5859 24.4404 23.1875 23.75 23.1875H8.75C8.05964 23.1875 7.5 22.5859 7.5 21.8438Z" fill="#837C7C"/>
<path d="M7.5 27.2188C7.5 26.4766 8.05964 25.875 8.75 25.875H23.75C24.4404 25.875 25 26.4766 25 27.2188C25 27.9609 24.4404 28.5625 23.75 28.5625H8.75C8.05964 28.5625 7.5 27.9609 7.5 27.2188Z" fill="#837C7C"/>
<path d="M7.5 32.5938C7.5 31.8516 8.05964 31.25 8.75 31.25H23.75C24.4404 31.25 25 31.8516 25 32.5938C25 33.3359 24.4404 33.9375 23.75 33.9375H8.75C8.05964 33.9375 7.5 33.3359 7.5 32.5938Z" fill="#837C7C"/>
<path d="M28.75 9.75002C28.0596 9.75002 27.5 10.3516 27.5 11.0938C27.5 11.8359 28.0596 12.4375 28.75 12.4375H31.25C31.9404 12.4375 32.5 11.8359 32.5 11.0938C32.5 10.3516 31.9404 9.75002 31.25 9.75002H28.75Z" fill="#837C7C"/>
<path d="M28.75 15.125C28.0596 15.125 27.5 15.7266 27.5 16.4688C27.5 17.2109 28.0596 17.8125 28.75 17.8125H31.25C31.9404 17.8125 32.5 17.2109 32.5 16.4688C32.5 15.7266 31.9404 15.125 31.25 15.125H28.75Z" fill="#837C7C"/>
<path d="M28.75 20.5C28.0596 20.5 27.5 21.1016 27.5 21.8438C27.5 22.5859 28.0596 23.1875 28.75 23.1875H31.25C31.9404 23.1875 32.5 22.5859 32.5 21.8438C32.5 21.1016 31.9404 20.5 31.25 20.5H28.75Z" fill="#837C7C"/>
<path d="M28.75 25.875C28.0596 25.875 27.5 26.4766 27.5 27.2188C27.5 27.9609 28.0596 28.5625 28.75 28.5625H31.25C31.9404 28.5625 32.5 27.9609 32.5 27.2188C32.5 26.4766 31.9404 25.875 31.25 25.875H28.75Z" fill="#837C7C"/>
<path d="M28.75 31.25C28.0596 31.25 27.5 31.8516 27.5 32.5938C27.5 33.3359 28.0596 33.9375 28.75 33.9375H31.25C31.9404 33.9375 32.5 33.3359 32.5 32.5938C32.5 31.8516 31.9404 31.25 31.25 31.25H28.75Z" fill="#837C7C"/>
<path d="M5.88388 0.737341C5.59976 0.431914 5.19639 0.291928 4.79977 0.361117C4.40316 0.430307 4.06166 0.700234 3.88197 1.08657L2.63197 3.77407C2.54518 3.96066 2.5 4.16641 2.5 4.37502V39.3125H1.25C0.559644 39.3125 0 39.9141 0 40.6563C0 41.3984 0.559644 42 1.25 42H38.75C39.4404 42 40 41.3984 40 40.6563C40 39.9141 39.4404 39.3125 38.75 39.3125H37.5V4.37502C37.5 4.16641 37.4548 3.96066 37.368 3.77407L36.118 1.08657C35.9383 0.700234 35.5968 0.430307 35.2002 0.361117C34.8036 0.291928 34.4002 0.431914 34.1161 0.737341L32.5 2.47467L30.8839 0.737341C30.3957 0.212574 29.6043 0.212574 29.1161 0.737341L27.5 2.47467L25.8839 0.737341C25.3957 0.212574 24.6043 0.212574 24.1161 0.737341L22.5 2.47467L20.8839 0.737341C20.3957 0.212574 19.6043 0.212574 19.1161 0.737341L17.5 2.47467L15.8839 0.737341C15.3957 0.212574 14.6043 0.212574 14.1161 0.737341L12.5 2.47467L10.8839 0.737341C10.3957 0.212574 9.60427 0.212574 9.11612 0.737341L7.5 2.47467L5.88388 0.737341ZM5.34244 3.95599L6.61612 5.32519C7.10427 5.84996 7.89573 5.84996 8.38388 5.32519L10 3.58787L11.6161 5.32519C12.1043 5.84996 12.8957 5.84996 13.3839 5.32519L15 3.58787L16.6161 5.32519C17.1043 5.84996 17.8957 5.84996 18.3839 5.32519L20 3.58787L21.6161 5.32519C22.1043 5.84996 22.8957 5.84996 23.3839 5.32519L25 3.58787L26.6161 5.32519C27.1043 5.84996 27.8957 5.84996 28.3839 5.32519L30 3.58787L31.6161 5.32519C32.1043 5.84996 32.8957 5.84996 33.3839 5.32519L34.6576 3.95599L35 4.69223V39.3125H5V4.69223L5.34244 3.95599Z" fill="#837C7C"/>
</svg>
