<svg width="39" height="40" viewBox="0 0 39 40" fill="none" xmlns="http://www.w3.org/2000/svg">
<path d="M7.5 3.375L7.5 15.6993L25 34.5118L36.4645 22.1875L18.9645 3.375L7.5 3.375ZM5 3.375C5 1.89074 6.11929 0.6875 7.5 0.6875H18.9645C19.6275 0.6875 20.2634 0.970647 20.7322 1.47465L38.2322 20.2872C39.2085 21.3367 39.2085 23.0383 38.2322 24.0878L26.7678 36.4122C25.7915 37.4617 24.2085 37.4617 23.2322 36.4122L5.73223 17.5996C5.26339 17.0956 5 16.4121 5 15.6993V3.375Z" fill="#837C7C"/>
<path d="M13.75 11.4375C13.0596 11.4375 12.5 10.8359 12.5 10.0938C12.5 9.35162 13.0596 8.75 13.75 8.75C14.4404 8.75 15 9.35162 15 10.0938C15 10.8359 14.4404 11.4375 13.75 11.4375ZM13.75 14.125C15.8211 14.125 17.5 12.3201 17.5 10.0938C17.5 7.86735 15.8211 6.0625 13.75 6.0625C11.6789 6.0625 10 7.86735 10 10.0938C10 12.3201 11.6789 14.125 13.75 14.125Z" fill="#837C7C"/>
<path d="M2.5 17.0431C2.5 17.7558 2.76339 18.4394 3.23223 18.9434L21.875 38.9844L21.7678 39.0997C20.7915 40.1492 19.2085 40.1492 18.2322 39.0997L0.732231 20.2871C0.26339 19.7831 0 19.0996 0 18.3868V6.0625C0 4.57823 1.11929 3.375 2.5 3.375V17.0431Z" fill="#837C7C"/>
</svg>
