<svg width="24" height="22" viewBox="0 0 24 22" fill="none" xmlns="http://www.w3.org/2000/svg">
<path d="M11.2351 0.45659C11.548 -0.152198 12.452 -0.152196 12.7649 0.456592L15.8123 6.38638C15.9365 6.62813 16.1767 6.79569 16.4545 6.83445L23.2688 7.78534C23.9684 7.88296 24.2477 8.70859 23.7415 9.18246L18.8106 13.7982C18.6096 13.9863 18.5179 14.2575 18.5653 14.5232L19.7293 21.0406C19.8489 21.7097 19.1175 22.22 18.4918 21.9041L12.3969 18.827C12.1484 18.7015 11.8516 18.7015 11.6031 18.827L5.50822 21.9041C4.88248 22.22 4.15115 21.7097 4.27065 21.0406L5.43467 14.5232C5.48212 14.2575 5.39039 13.9863 5.18937 13.7982L0.258509 9.18246C-0.247724 8.70859 0.0316229 7.88296 0.731219 7.78534L7.5455 6.83445C7.82331 6.79569 8.06346 6.62813 8.1877 6.38637L11.2351 0.45659Z" fill="#4AC7D5"/>
</svg>
