<svg width="27" height="26" viewBox="0 0 27 26" fill="none" xmlns="http://www.w3.org/2000/svg">
<mask id="mask0_435_1352" style="mask-type:luminance" maskUnits="userSpaceOnUse" x="0" y="0" width="27" height="26">
<path fill-rule="evenodd" clip-rule="evenodd" d="M0.5 0.749878H26.0906V25.1261H0.5V0.749878Z" fill="white"/>
</mask>
<g mask="url(#mask0_435_1352)">
<path fill-rule="evenodd" clip-rule="evenodd" d="M2.77946 12.1538C4.53196 17.6063 11.4557 22.015 13.2957 23.1063C15.142 22.0038 22.1157 17.5463 23.812 12.1588C24.9257 8.67628 23.892 4.26503 19.7845 2.94128C17.7945 2.30253 15.4732 2.69128 13.8707 3.93128C13.5357 4.18878 13.0707 4.19378 12.7332 3.93878C11.0357 2.66253 8.81821 2.28878 6.79696 2.94128C2.69571 4.26378 1.66571 8.67503 2.77946 12.1538M13.297 25.1263C13.142 25.1263 12.9882 25.0888 12.8482 25.0125C12.457 24.7988 3.24071 19.7188 0.994458 12.7263C0.993208 12.7263 0.993208 12.725 0.993208 12.725C-0.416793 8.32253 1.15321 2.79003 6.22196 1.15628C8.60196 0.386276 11.1957 0.725025 13.2932 2.04878C15.3257 0.763776 18.0257 0.408776 20.3582 1.15628C25.432 2.79253 27.007 8.32378 25.5982 12.725C23.4245 19.6375 14.1407 24.7938 13.747 25.01C13.607 25.0875 13.452 25.1263 13.297 25.1263" fill="#A2A2A2"/>
</g>
<path fill-rule="evenodd" clip-rule="evenodd" d="M20.6924 10.2811C20.2086 10.2811 19.7986 9.90984 19.7586 9.41984C19.6761 8.39234 18.9886 7.52484 18.0099 7.20859C17.5161 7.04859 17.2461 6.51984 17.4049 6.02859C17.5661 5.53609 18.0899 5.26859 18.5849 5.42359C20.2886 5.97484 21.4824 7.48359 21.6286 9.26734C21.6699 9.78359 21.2861 10.2361 20.7699 10.2773C20.7436 10.2798 20.7186 10.2811 20.6924 10.2811" fill="#A2A2A2"/>
</svg>
